<svg width="19" height="21" viewBox="0 0 19 21" fill="none" xmlns="http://www.w3.org/2000/svg">
<path d="M16.7295 11.4551L17.7959 13.8936L17.8701 14.0908C17.934 14.2911 17.9668 14.5009 17.9668 14.7119C17.9666 15.8393 17.0522 16.752 15.9248 16.752L15.9258 16.7529H12.833C12.403 18.1991 11.0653 19.2539 9.47949 19.2539C7.89346 19.2539 6.55501 18.1996 6.125 16.7529H3.04199C2.83214 16.7529 2.62404 16.7204 2.4248 16.6572L2.22852 16.584C1.19447 16.1348 0.720041 14.9326 1.16895 13.8984L2.22949 11.457V8.25L2.23926 7.87598C2.43356 4.03593 5.5963 1.00003 9.47949 1C13.2714 1 16.3905 3.89962 16.7041 7.6416L16.7256 8.00684V8.02441L16.7295 8.2334V11.4551Z" stroke="#EC4C24" stroke-width="2"/>
</svg>
